<?xml version="1.0" encoding="UTF-8" standalone="no"?>
<!-- Generator: Adobe Illustrator 21.1.0, SVG Export Plug-In . SVG Version: 6.00 Build 0)  -->

<svg
   version="1.1"
   id="Layer_1"
   x="0px"
   y="0px"
   viewBox="0 0 114.6085 104.44142"
   xml:space="preserve"
   sodipodi:docname="tiger-icon.svg"
   width="114.6085"
   height="104.44142"
   inkscape:version="1.3.2 (091e20e, 2023-11-25, custom)"
   xmlns:inkscape="http://www.inkscape.org/namespaces/inkscape"
   xmlns:sodipodi="http://sodipodi.sourceforge.net/DTD/sodipodi-0.dtd"
   xmlns="http://www.w3.org/2000/svg"
   xmlns:svg="http://www.w3.org/2000/svg"><defs
   id="defs8" /><sodipodi:namedview
   id="namedview8"
   pagecolor="#ffffff"
   bordercolor="#000000"
   borderopacity="0.25"
   inkscape:showpageshadow="2"
   inkscape:pageopacity="0.0"
   inkscape:pagecheckerboard="0"
   inkscape:deskcolor="#d1d1d1"
   inkscape:zoom="3.7638889"
   inkscape:cx="55.394834"
   inkscape:cy="53.00369"
   inkscape:window-width="1920"
   inkscape:window-height="1009"
   inkscape:window-x="1912"
   inkscape:window-y="-8"
   inkscape:window-maximized="1"
   inkscape:current-layer="Layer_1" />
<g
   id="g8"
   transform="translate(-52.6,-54.958579)"
   style="fill:#fffffe;fill-opacity:1">
	<path
   d="m 126.1,83.8 c -2.4,1.1 -5,2 -5.9,2.2 -0.2,0.1 -0.3,0.1 -0.3,0.1 0,0 5.2,-0.2 8.5,-1.8 3.3,-1.6 4.4,-3 7.9,-3 2.8,0 6,1.8 7.4,2.6 0.4,0.2 0.6,0.4 0.6,0.4 0,0 -2.4,-4 -6.4,-4.9 0,0 -0.1,0 -0.1,0 -0.1,0 -0.2,0 -0.3,-0.1 -0.4,-0.1 -0.8,-0.1 -1.3,-0.1 v 0 c 0,0 0,0 0,0 -0.1,0 -0.2,0 -0.3,0 -4.6,0.3 -6.9,3.3 -9.8,4.6 z"
   id="path1"
   style="fill:#fffffe;fill-opacity:1" />
	<path
   d="m 137.3,84.3 c -5,0 -7.3,2.1 -10.2,3.4 -5.9,2.6 -11,1.6 -11,1.6 0,0 5.3,2.3 11.9,0.2 3.5,-1.1 5.8,-2.8 9.4,-2.8 3.6,0 8.6,3.5 8.6,3.5 0,0 -3.7,-5.9 -8.7,-5.9 z"
   id="path2"
   style="fill:#fffffe;fill-opacity:1" />
	<path
   d="m 128.3,92.8 c -2.7,0.3 -6.5,-0.3 -6.5,-0.3 0,0 3.4,1.5 7.9,1.4 4.5,0 6.6,-1.3 10.3,-1.6 3.7,-0.2 5.5,-0.2 5.5,-0.2 0,0 -3.2,-1.9 -6.3,-1.9 -3,0.1 -7.1,2.2 -10.9,2.6 z"
   id="path3"
   style="fill:#fffffe;fill-opacity:1" />
	<path
   d="m 107.2,122.2 c -7.2,-11.9 1.3,-30.3 1.3,-30.3 0,0 -3.7,4.7 -5.6,11.6 -0.3,1.1 -0.5,2.2 -0.7,3.4 -1.1,7.5 0.1,17.4 5.4,20.4 4.9,2.8 8.6,2.4 9.2,2.3 0,0 0.1,0 0.1,0 0,0 -5.4,-0.4 -9.7,-7.4 z"
   id="path4"
   style="fill:#fffffe;fill-opacity:1" />
	<path
   d="m 101.9,91.9 c -1.4,1.4 -2.9,3.4 -4.1,5.9 -4.5,9.2 -4.5,14.4 -4.5,14.4 0,0 1,-1.6 2.3,-2.9 1.3,-1.3 1.7,-1.6 1.7,-1.6 0,0 0,-0.1 0,-0.3 0.1,-1 0.7,-5 2.4,-9.5 1.8,-4.8 5.9,-9.2 5.9,-9.2 0,0 -1.6,1 -3.7,3.2 z"
   id="path5"
   style="fill:#fffffe;fill-opacity:1" />
	<path
   d="m 100.5,77.7 c 4.9,0 8.4,2.4 8.4,2.4 0,0 -2.2,0.2 -4.4,1.4 -2.3,1.3 -3.2,3.3 -3.2,3.3 0,0 2.6,-2.9 8.3,-3.2 3.1,-0.1 4.1,0.6 6,0.4 2.1,-0.3 3.1,-1.4 3.2,-1.7 0,0 0,-0.1 0,-0.1 0,0 -3.1,0.7 -4.8,0.1 -1.7,-0.5 -7.7,-4.8 -12.4,-4.7 -6.7,0.1 -8.4,5.6 -8.4,5.6 0,0 0,-0.1 0.1,-0.2 0.7,-0.6 3.1,-3.3 7.2,-3.3 z"
   id="path6"
   style="fill:#fffffe;fill-opacity:1" />
	<path
   d="m 151,103.8 c 1,0 1.6,-0.4 2.1,-0.6 0.3,0.2 0.8,0.3 1.3,0.4 0.7,0.1 1.3,-0.1 1.8,-0.4 v 0.2 c 0.2,0.7 0.5,1.8 0.5,3.3 0.1,1.2 0,2.4 0.1,3.3 0.1,0.8 0.3,2 1.4,2.3 1.5,0.4 4.1,-3.6 5.2,-7.8 0.5,-1.8 0.8,-3.6 1,-5.1 0.5,-1 1,-2 1.3,-2.8 0.8,-2 1.6,-4.6 1.5,-7.2 -0.1,-2.6 -1,-4.9 -1.8,-6.5 -0.3,-0.6 -0.7,-1.2 -1,-1.6 -0.2,-0.4 -0.5,-0.7 -0.7,-1 -0.1,-0.1 -0.1,-0.1 -0.1,-0.1 v 0 c -1.2,-1.3 -2.9,-2.3 -6.1,-3.5 -2.3,-0.9 -4.4,-1.7 -6,-2.3 0.1,-0.5 0.1,-1.9 -0.7,-4 -0.6,-1.6 -2.2,-2.7 -3.6,-3.4 -0.9,-0.5 -1.9,-0.9 -2.5,-1.1 0.1,-0.4 0.3,-1 0.4,-1.3 0.1,-0.6 0.3,-2.5 -1.4,-2.8 -1.1,-0.2 -3.9,0.2 -5.7,0.4 -1.8,-1.2 -4.7,-3 -5.9,-3.5 -3.1,-1.5 -5,-1.4 -5.5,-1.3 -0.3,-0.1 -1.7,-0.6 -3.3,-1.1 -1.9,-0.6 -4.3,-1.2 -6.2,-1.3 -2.6,-0.1 -4.7,0 -5.8,0.1 h -0.2 -0.3 -0.1 c -3.9,0.4 -7.1,1.1 -9.2,1.6 v 0 c 0,0 -8.5,2.1 -13.5,2.7 -5,0.6 -12.2,0.5 -16.1,0.3 -1,-0.1 -1.8,-0.1 -2.6,-0.1 -0.7,0 -1.4,0 -2,0.1 -1.3,0.2 -2.1,0.9 -2.3,2.2 l -0.1,0.6 v 0 c 0,0 0,0 0,0.1 0.6,2.3 3.1,6.5 5.1,8.9 2.4,3 4.7,4.5 6,5.1 -0.5,0.6 -1.4,1.6 -2.4,2.7 -1.7,1.9 -3.9,4.1 -5.5,5.6 -3.5,3 -9.4,9.5 -11.6,17.8 -2.3,8.4 -3.9,13.1 -3.9,13.1 0,0 3,0.5 6.1,-1.4 -0.4,1.9 -0.8,3.5 -1.1,4.6 -1.5,5.2 -4.5,7.3 -4.5,7.3 0,0 1.7,1.4 5.4,2 1.7,0.3 2.9,0.2 3.7,0 0,2.3 -0.1,4.6 -0.3,5.9 -0.5,2.9 -1.4,5.3 -1.4,5.3 0,0 2.4,-0.5 4.2,-1.1 1.8,-0.6 4.1,-1.5 5.5,-2.8 0.8,1.4 1.8,3 3,4.5 1.6,2 3.5,3.5 5,4.5 1.5,1 3.1,1.8 3.1,1.8 0,0 0.1,-0.8 0.2,-1 0.1,-0.3 0.2,-0.6 0.4,-1 0.4,-0.9 1.2,-2.1 2.7,-3.5 0.7,-0.6 1.6,-1.2 2.6,-1.6 0.9,1.8 2.1,4.1 3.8,6.2 1.6,2 3.5,3.5 5,4.5 1.5,1 3.1,1.8 3.1,1.8 0,0 0.1,-0.8 0.2,-1 0.1,-0.2 0.2,-0.6 0.4,-1 0.4,-0.9 1.2,-2.1 2.7,-3.5 2.6,-2.5 8.2,-3.3 13,-2.4 2.5,0.8 4.8,1.5 6.7,2.1 0.4,1.1 0.8,2.3 1.6,4.3 1.9,4.5 7.3,5.1 7.9,5.2 l -0.1,3.2 3.7,-1 -0.3,1.7 c 0,0 4.6,-1.6 6.4,-2 3.8,-0.8 6.3,-3.5 7.9,-5.8 1.2,-1.8 1.9,-3.4 2.2,-4.1 0.4,-0.2 1,-0.7 1.7,-1.3 1.5,-1.2 2.2,-3.4 2.1,-5.1 0,-1 -0.4,-1.9 -0.7,-2.5 -0.2,-0.3 -0.4,-0.7 -0.6,-0.9 -0.1,-0.1 -0.2,-0.2 -0.3,-0.4 0,-0.1 0,-0.1 0,-0.2 0.1,-1.7 0.2,-3.8 0,-4.9 -0.3,-1.9 -1.1,-4.1 -3,-3.7 -0.9,0.2 -1.4,1.1 -1.8,2.2 -1.2,-3 -2.9,-8.1 -3.2,-12.5 -0.3,-5.4 3.9,-11.9 5.5,-14.1 -0.3,-0.3 -0.2,-0.3 -0.1,-0.3 z m 9.8,1.8 c 0,0 0,0.1 0,0 z m 2.9,-15.3 c 0.2,-0.1 0.5,-0.3 0.7,-0.4 -0.1,2 -0.5,3.5 -0.9,4.6 -0.6,-0.3 -1.3,-0.7 -2.3,-0.9 0.4,-0.4 0.8,-0.8 1.1,-1.2 0.2,-0.3 0.3,-0.5 0.4,-0.8 0.1,-0.2 0.2,-0.5 0.3,-0.9 0.2,-0.1 0.4,-0.2 0.7,-0.4 z m -2.6,-0.8 c -0.1,0.8 -2,3.4 -2,3.4 0,0 1.2,-3.1 1.2,-3.8 0.1,-1.1 0.3,-1.4 1.2,-1.9 1.7,-0.9 1.7,-1.8 1.9,-2 0.2,1.6 -0.5,2.1 -1.1,2.4 -0.9,0.4 -1.1,0.8 -1.2,1.9 z m 2.3,-6.8 c 0,0 -1.4,1.6 -2.6,1.7 -1.4,0.1 -4.2,-1 -6,-1.1 -1.7,-0.1 -4.8,0.4 -4.7,2.1 -0.3,-0.2 -0.5,-0.6 -0.6,-1 -0.1,-1.6 3,-2.2 4.7,-2.1 1.8,0.1 4.5,1.2 6,1.1 1.5,-0.1 3.1,-0.6 3.2,-0.7 z m -13.6,61.4 c -0.8,0.9 -2.7,1.5 -2.7,1.5 0,0 0,0 -0.4,0.9 -0.1,0.2 -0.2,0.4 -0.3,0.6 -0.4,0.8 -0.9,1.7 -1.6,2.6 -0.8,1.1 -1.9,1.9 -2.9,2.4 l -0.3,0.2 c 0,0 0,-0.4 -0.1,-0.7 -0.1,-0.6 -0.7,-1.5 -0.7,-1.5 0,0 -0.5,1 -1,1.5 -0.4,0.5 -1.2,1 -1.3,1.1 0,-0.1 0.1,-0.2 -0.1,-0.9 -0.1,-0.5 -0.6,-1.2 -0.6,-1.2 0,0 -2.7,2.3 -2.8,2.3 -0.1,-0.2 -0.1,-0.3 -0.2,-0.5 -0.3,-0.5 -0.7,-0.7 -1.1,-0.9 -0.2,0 -0.3,-0.1 -0.6,-0.1 -0.2,0 -0.3,0 -0.5,-0.1 -0.3,0 -0.7,-0.1 -1.1,-0.2 -0.4,-0.1 -0.8,-0.2 -1.2,-0.4 -1.6,-0.7 -2.5,-2.2 -5.6,-9.1 -1.5,-3.4 -3.3,-5.5 -4.7,-6.8 -1.6,-1.4 -2.9,-1.9 -3.1,-1.9 l -2.6,-0.8 c 0,0 2,3.8 3.5,6.3 -7.4,-2 -20.6,-5.9 -26.9,-10.5 -6,-4.3 -9.5,-11.9 -9.5,-11.9 0,0 -1.3,4.5 1.4,10 1.5,3.1 4,5.6 5.6,6.9 -1.7,0.2 -3.4,0.5 -5,1.1 -3,1 -4.4,2.4 -5,3 -0.1,-0.1 -0.3,-0.2 -0.4,-0.4 -0.5,-0.5 -1.3,-1.5 -2.1,-3 -0.8,-1.5 -1.3,-3 -1.6,-4.1 C 74,128.4 73.9,127 73.9,127 l -4.5,2.3 c 0.1,-0.5 0.2,-1.2 0.3,-2.1 0.3,-2 1,-4.6 2.1,-7.5 2.3,-5.8 3.7,-11.6 3.7,-11.6 l -11.2,11.2 c 0.2,-0.9 0.4,-1.9 0.6,-3 0.5,-2.6 1,-5.6 1.5,-8.6 0.9,-4.6 3.3,-7.9 5.5,-10.1 1.1,-1.1 4,-4.1 4,-4.1 0,0 -1.4,0.2 -3.1,0.7 -1.7,0.5 -3.9,1.2 -6,2.4 -0.3,0.2 -0.6,0.3 -0.8,0.5 0.1,-0.4 0.3,-0.9 0.5,-1.3 0.8,-2 2.2,-4.4 4.3,-6.3 4.2,-3.9 12.7,-12.2 13.6,-13.1 0.5,-0.2 3,-1.4 5.9,-2.2 3.2,-0.8 8,-1.1 8,-1.1 l -0.7,-1 C 97.5,72 95,68.7 87.6,68 c 0,0 0,0 0,0 -0.7,-0.1 -1.4,-0.1 -2.2,-0.1 -6.8,-0.2 -10.1,-1.7 -11.7,-3 -0.4,-0.3 -1.5,-1.1 -2.7,-1.8 -0.3,-0.2 -0.7,-0.4 -1,-0.6 0,0 0.1,0 0.1,0 1.1,0.1 2.7,0.3 4.4,0.4 2.4,0.2 5.2,0.3 7.8,0.1 6.1,-0.5 10.8,-1.3 14.1,-2 -0.3,0.4 -0.6,0.8 -0.9,1.4 -1.6,2.8 -2,4.5 -2,4.5 0,0 1.9,-3.3 7.3,-6 1.4,-0.7 2.6,-1.3 3.6,-1.7 l 2.7,-0.5 c -0.1,0.1 -0.2,0.3 -0.3,0.4 -0.9,1.3 -1.3,2.6 -1.3,2.6 0,0 2.4,-1.4 6.4,-2.8 1.9,-0.6 4.3,-0.9 6.3,-0.9 l 2.4,0.2 c -0.2,0.1 -0.5,0.1 -0.8,0.2 -2.9,0.8 -3.8,2.2 -3.8,2.2 0,0 5.4,-0.7 8.3,-0.5 2.9,0.2 5.1,2.9 6.3,4.4 1.8,2.1 5.3,2.9 5.3,2.9 0,0 -1.1,-1.2 -2.7,-3.1 -0.4,-0.5 -0.7,-1 -1,-1.4 2,1.2 4.3,2.6 5.2,3.2 0.9,0.6 2.1,1.1 3.3,1.5 1.2,0.5 2.6,0.9 3.9,1.5 0.6,0.2 1,0.4 1.3,0.6 0.4,0.2 0.7,0.5 0.9,0.7 0.2,0.2 0.3,0.4 0.4,0.6 0.1,0.1 0.1,0.3 0.2,0.5 -0.2,0 -0.3,0.1 -0.5,0.1 -0.6,0.1 -1.2,0.3 -1.7,0.5 -0.1,-0.2 -0.2,-0.4 -0.4,-0.6 -0.2,-0.2 -0.3,-0.4 -0.5,-0.6 0,0 -0.1,-0.1 -0.1,-0.1 -0.3,-0.3 -0.8,-0.6 -1.3,-0.8 -0.5,-0.2 -1.1,-0.1 -1.5,-0.1 -0.4,0 -0.9,0.2 -0.9,0.2 0,0 3.3,4.3 4.4,4.9 0.5,0.3 1.2,0.5 2,0.8 0.8,0.3 1.9,0.6 3.3,1.1 5.6,1.8 7.3,2.5 8.9,3.5 0.7,0.4 1.3,0.8 1.7,1.4 -0.4,0.1 -0.8,0.2 -1.3,0.2 -1.4,0.1 -4.4,-1.2 -6.6,-1.1 -1.9,0.1 -4.2,0.2 -5.3,2.3 0,0.1 -0.1,0.1 -0.1,0.2 v 0 c 0,0 0,0.1 -0.1,0.2 0,0 0,0 0,0 -0.1,0.2 -0.1,0.4 -0.2,0.6 -0.1,0.7 -0.1,1.8 0.7,2.6 3.3,3.1 5.8,3 7.2,4 0.7,0.5 0.9,1.4 0.8,2.1 -0.8,0 -1.7,0 -2.6,0 -2.3,0.1 -5.6,0.6 -8.9,1.2 -3.3,0.6 -6.6,1.3 -9,1.6 -4.9,0.7 -11.5,-0.2 -16.2,1.8 -2.4,1 -5.2,3.4 -7,8.1 -2.1,5.4 -1.5,9.4 -0.1,12.5 0.7,1.5 1.6,2.8 2.5,3.9 0.9,1.1 1.8,2 2.5,2.8 1.7,2 3.9,5 6.2,8.3 1.3,1.8 2.6,3.7 3.9,5.6 3.8,5.5 12.1,6.9 17.8,5.7 1.9,-0.4 3.4,-0.9 4.6,-1.5 0.6,0.5 0.5,0.9 0.2,1.2 z m -2.5,-5.9 c 0,0 1,-2 1.4,-2.8 0.4,-0.8 0.8,-1.9 1.1,-2.7 0.2,-0.7 0.4,-1.2 0.6,-1.5 0,0.1 0.1,0.1 0.1,0.2 0.2,0.3 0.3,0.9 0.4,1.6 0.1,0.8 0.1,2.5 0,4.1 0,0.8 -0.1,1.5 -0.2,2.1 0,0 -0.1,0.1 -0.2,0.1 -1.1,0.6 -2.8,1.4 -4.8,1.9 -3.1,0.8 -6.8,0.7 -10.8,-1.2 -0.5,-0.2 -1,-0.5 -1.6,-0.8 -0.9,-0.5 -1.6,-1.1 -2.3,-1.9 0.1,-0.1 0.3,-0.2 0.4,-0.2 0,0 0,0 0,0 0,0 0.1,0 0.1,-0.1 0.2,-0.1 0.3,-0.2 0.5,-0.4 0.8,-0.6 1.6,-1.5 2.3,-2.6 0.3,-0.5 0.5,-0.9 0.7,-1.3 0.2,-0.4 0.5,-0.8 0.7,-1.2 0.1,-0.2 0.3,-0.4 0.4,-0.6 0.1,-0.1 0.1,-0.2 0.2,-0.3 0,0.1 0.1,0.2 0.2,0.4 0.1,0.4 0.3,0.8 0.5,1.4 v 0 c 0.1,0.4 0.2,0.9 0.3,1.6 0.4,3 0.5,5 0.5,5 v 0 0 c 0,0 0.2,-0.2 0.6,-0.5 0.5,-0.3 1.1,-0.7 1.8,-0.7 0.5,0 0.8,0.1 1.1,0.2 0.5,0.2 0.7,0.6 0.7,0.6 0,0 0.3,-0.4 0.8,-0.7 0,0 0,0 0,0 0,0 0,0 0.1,0 0.2,-0.1 0.3,-0.1 0.6,-0.1 v 0 0 0 c 0.1,0 0.2,0 0.4,0 0.1,0 0.2,0 0.3,0.1 0.2,0.1 0.5,0.2 0.7,0.5 0.3,-0.4 0.6,-0.6 1.1,-0.7 0.3,0 0.5,0 0.8,0.1 0.2,0 0.5,0.4 0.5,0.4 z m -1.4,-4.6 0.3,1 c -0.1,0 -0.1,0 -0.2,0 -0.4,0.1 -0.8,0.2 -1.1,0.4 -0.3,-0.1 -0.7,-0.2 -1.2,-0.2 -0.5,0 -1,0.1 -1.4,0.2 -0.1,0 -0.2,0.1 -0.3,0.1 -0.3,-0.1 -0.8,-0.3 -1.5,-0.3 -0.4,0 -0.3,0 -0.6,0.1 -0.1,-0.5 -0.5,-1.4 -0.7,-2.3 -0.7,-2.8 -1.5,-5.2 -2.6,-5.2 -0.8,0 -1.4,0.9 -1.9,1.5 -0.5,0.8 -1.1,1.8 -1.9,3.1 -0.5,0.8 -1.1,1.5 -1.6,1.9 -0.1,-0.2 -0.2,-0.4 -0.3,-0.6 -1.4,-2.8 -1.1,-7.1 -3.6,-10.1 -1.9,-2.4 -6.6,-2.5 -8.7,-2.4 -0.5,-0.6 -1,-1.2 -1.4,-1.9 1.6,-1 5.4,-3 8.6,-3.1 4.2,-0.1 6.6,0.8 8.4,2.9 1.9,2.2 3.1,4.6 3.1,4.6 0,0 -0.2,-3.1 -2.1,-5.8 -0.2,-0.3 -0.4,-0.5 -0.7,-0.8 0.5,-0.2 1.4,-0.5 2.4,-0.2 1.7,0.4 4.1,2.2 5.5,6.7 1.3,4.5 1,6.8 2.3,8.7 0.5,0.8 0.9,1.3 1.2,1.7 z m 1.8,-32.8 c -0.1,0 -0.1,0 -0.2,0 0,0 0,0 -0.1,0 -0.8,-0.1 -1.7,-1.1 -1.7,-1.1 0,0 -0.5,0.5 -1.1,0.9 -0.2,0.1 -0.4,0.2 -0.7,0.3 0,0 0,0 0,0 0,0 0,0 0,0 0,0 -0.1,0 -0.1,0 0,0 0,0 -0.1,0 -0.6,0.1 -1.4,-0.2 -1.9,-0.5 -0.4,-0.2 -0.7,-0.4 -0.7,-0.4 0,0 -0.6,4 -1.6,6.3 -0.4,1 -0.9,1.8 -1.4,2.6 v 0 c -0.2,0.3 -0.4,0.6 -0.6,0.9 -0.5,0.8 -1.1,1.4 -1.6,1.9 v 0 0 c 0.1,-2.5 0.1,-4.7 -0.5,-7.6 -0.2,-0.8 -0.5,-1.8 -0.8,-2.7 -0.5,-0.2 -1,0.2 -1.6,0.4 v 0 c -0.1,0 -0.2,0.1 -0.3,0.1 0,0 0,0 0,0 0,0 -0.1,0 -0.1,0 0,0 0,0 0,0 0,0 -0.1,0 -0.1,0 0,0 0,0 0,0 0,0 -0.1,0 -0.1,0 0,0 0,0 -0.1,0 0,0 -0.1,0 -0.1,0 0,0 0,0 -0.1,0 0,0 -0.1,0 -0.1,-0.1 0,0 0,0 -0.1,0 0,0 -0.1,0 -0.1,-0.1 0,0 -0.1,0 -0.1,-0.1 0,0 -0.1,-0.1 -0.1,-0.1 0,0 -0.1,0 -0.1,-0.1 0,0 -0.1,-0.1 -0.1,-0.1 0,0 -0.1,-0.1 -0.1,-0.1 0,0 -0.1,-0.1 -0.1,-0.1 0,0 -0.1,-0.1 -0.1,-0.1 0,0 -0.1,-0.1 -0.1,-0.1 -0.1,-0.1 -0.2,-0.2 -0.2,-0.3 0,0 -0.6,0.9 -1.7,0.9 -0.1,0 -0.2,0 -0.3,0 0,0 -0.1,0 -0.1,0 0,0 -0.1,0 -0.2,0 0,0 -0.1,0 -0.1,0 0,0 -0.1,0 -0.1,0 0,0 -0.1,0 -0.1,0 0,0 -0.1,0 -0.1,0 0,0 0,0 0,0 0,0 0,0 -0.1,0 -0.1,0 -0.2,-0.1 -0.2,-0.1 0,0 0,0 -0.1,0 -0.1,0 -0.2,-0.1 -0.3,-0.1 0,0 -0.1,0 -0.1,0 -0.1,0 -0.1,-0.1 -0.2,-0.1 0,0 0,0 -0.1,-0.1 -0.1,-0.1 -0.2,-0.1 -0.2,-0.2 0,0 0,0 -0.1,-0.1 -0.1,-0.1 -0.1,-0.1 -0.2,-0.2 0,0 0,0 -0.1,-0.1 -0.1,-0.1 -0.1,-0.1 -0.2,-0.2 0,0 0,0 0,0 0,-0.1 -0.1,-0.1 -0.2,-0.2 0,0 0,0 0,-0.1 -0.1,-0.1 -0.1,-0.2 -0.2,-0.2 2,0 4.5,-0.1 6.7,-0.2 0.7,0 1.4,-0.1 2,-0.1 0.4,0 0.8,-0.1 1.2,-0.1 0.2,0 0.4,0 0.5,0 0.3,0 0.6,-0.1 0.9,-0.1 2.3,-0.3 5.5,-1 8.7,-1.6 3.2,-0.6 6.4,-1.2 8.9,-1.2 2.5,0 4.8,0.5 6.5,1 0.6,0.1 1.1,0.3 1.5,0.5 0,0.4 -0.1,0.8 -0.2,1.3 -0.2,1.3 -0.5,2.8 -0.9,4.4 -0.3,1 -0.6,1.9 -0.9,2.6 0,0 0,0 0,0 -0.4,1 -0.9,1.8 -1.3,2.4 0,0 0,0 0,-0.1 0,-0.3 0,-0.6 0,-0.9 0,-0.5 0,-0.9 0,-1.4 -0.1,-2 -0.5,-3.4 -0.8,-4.2 -0.2,-0.5 -0.3,-0.8 -0.4,-0.9 0,0 0,0 0,-0.1 l -0.1,-0.2 -0.5,-0.8 c 0,0 -1.1,0.9 -2.2,1 v 0 0 0 c 0,0 0,0 0,0 -0.2,0 -0.5,-0.1 -0.7,-0.2 -0.5,-0.2 -0.9,-0.6 -0.9,-0.6 0,0 -1.1,0.8 -1.9,0.9 v 0 0 c -0.9,0 -2.1,-0.9 -2.1,-0.9 0,0 -1.2,0.5 -2.1,0.5 z"
   id="path7"
   style="fill:#fffffe;fill-opacity:1" />
	<path
   d="m 111.4,73.6 c 0,0 0.1,0.8 -1.8,1.5 -1.9,0.7 -2.6,0.4 -2.6,0.4 0,0 1,1.1 3.9,0.7 0.7,-0.1 1.5,-0.3 2.1,-0.7 0.7,2.2 4.1,3.6 7.9,3.3 2.6,-0.2 4.7,-1.2 6,-2.5 0.9,0.3 1.8,0.6 2.8,0.8 5.4,0.9 6.4,-1.5 6.5,-2.7 0.2,-1.7 -0.8,-3.2 -0.8,-3.2 0,0 0,0 0,0.1 -0.1,0.4 -0.7,2.2 -2.3,2.4 -0.7,0.1 -1.8,-0.3 -1.8,-0.3 l -6.1,-4 c -0.1,0 -0.1,-0.1 -0.2,-0.1 l -3.9,-2.5 c 0,0 -4.1,1.2 -8,2.1 -3.9,1 -5.8,0.5 -5.8,0.5 0,0 0,0 0,0.1 0.2,0.2 1.2,1.1 4,1.7 0.2,0 0.5,0.1 0.8,0.1 -0.3,0.1 -0.7,0.2 -1,0.2 -4.2,0.9 -8.4,-0.5 -8.4,-0.5 0,0 1.6,1.3 4,2.1 2.4,0.7 4.7,0.5 4.7,0.5 z m 5.4,-0.5 c 0.5,-0.1 1.6,-0.2 3.8,-0.4 0,0.1 0,0.2 0.1,0.3 0.2,1.1 0.1,2.9 0.1,2.9 0,0 0.6,-0.4 1.3,-1.8 0.1,-0.2 0.2,-0.3 0.2,-0.5 0.7,0.6 1.5,1.2 2.5,1.7 -0.4,0.8 -1.4,1.6 -3.3,1.9 -0.1,0 -0.1,0 -0.2,0 -2.6,0 -4.7,-1.1 -4.8,-2.7 -0.1,-0.5 0,-0.9 0.3,-1.4 z"
   id="path8"
   style="fill:#fffffe;fill-opacity:1" />
</g>
</svg>
