<?xml version="1.0" encoding="UTF-8" standalone="no"?>
<svg
   id="Layer_1"
   data-name="Layer 1"
   viewBox="0 0 66.118652 25.001278"
   version="1.1"
   sodipodi:docname="RIT_hor.svg"
   width="66.118652"
   height="25.001278"
   inkscape:version="1.3.2 (091e20e, 2023-11-25, custom)"
   xmlns:inkscape="http://www.inkscape.org/namespaces/inkscape"
   xmlns:sodipodi="http://sodipodi.sourceforge.net/DTD/sodipodi-0.dtd"
   xmlns="http://www.w3.org/2000/svg"
   xmlns:svg="http://www.w3.org/2000/svg">
  <sodipodi:namedview
     id="namedview6"
     pagecolor="#ffffff"
     bordercolor="#000000"
     borderopacity="0.25"
     inkscape:showpageshadow="2"
     inkscape:pageopacity="0.0"
     inkscape:pagecheckerboard="0"
     inkscape:deskcolor="#d1d1d1"
     inkscape:zoom="13.652778"
     inkscape:cx="32.630722"
     inkscape:cy="12.488301"
     inkscape:window-width="1920"
     inkscape:window-height="1009"
     inkscape:window-x="1912"
     inkscape:window-y="-8"
     inkscape:window-maximized="1"
     inkscape:current-layer="Layer_1" />
  <defs
     id="defs1">
    <style
       id="style1">.cls-1{fill:#231f20;}</style>
  </defs>
  <title
     id="title1">RIT_hor_k</title>
  <g
     id="g6"
     style="fill:#ffffff;fill-opacity:1">
    <path
       class="cls-1"
       d="m 36.19034,2.6934074 c 0.42994,-1.12487 1.84974,-1.12487 2.98962,-1.12487 h 0.212 V 0.01776743 c 0,0 -4.44371,0.098 -5.80284,0.098 -1.4002,0 -5.55276,-0.098 -5.55276,-0.098 V 1.5685374 h 0.212 c 1.13982,0 2.55968,0 2.98859,1.12291 a 21.36126,21.36126 0 0 1 0.35695,4.85438 v 9.9067396 a 21.4039,21.4039 0 0 1 -0.35592,4.85341 c -0.42994,1.12388 -1.8498,1.12388 -2.98962,1.12388 h -0.212 v 1.55181 c -10e-5,-0.0039 3.5923,-0.153 5.55912,-0.153 2.264,0 5.79648,0.153 5.79648,0.153 v -1.55181 h -0.212 c -1.13988,0 -2.55968,0 -2.98865,-1.12187 a 21.37019,21.37019 0 0 1 -0.35695,-4.85542 V 7.5458274 a 21.39209,21.39209 0 0 1 0.35598,-4.85242 z"
       id="path1"
       style="fill:#ffffff;fill-opacity:1" />
    <path
       class="cls-1"
       d="M 42.76252,0.04238743 V 6.5175974 h 1.53979 l 0.007,-0.204 c 0.141,-4.21347 1.75277,-4.39143 5.38434,-4.39143 0.125,0 0.25,0 0.37294,-10e-4 0.90291,-0.006 1.75479,-0.011 2.08971,0.322 a 0.62682,0.62682 0 0 1 0.167,0.46894 V 19.733927 c 0,2.52569 -0.354,3.56956 -3.91053,3.71658 l -0.203,0.008 v 1.54277 c 0,0 4.14644,-0.152 6.54562,-0.152 1.83163,0 5.9208,0.152 5.9208,0.152 v -1.5428 l -0.20292,-0.008 c -3.5576,-0.147 -3.91053,-1.19089 -3.91053,-3.71658 V 2.7120374 a 0.56271,0.56271 0 0 1 0.163,-0.42194 c 0.41,-0.403 1.53985,-0.38594 2.44769,-0.37294 0.172,0.003 0.341,0.005 0.501,0.005 3.55156,0 4.69638,1.02783 4.90338,4.39747 l 0.012,0.198 h 1.52884 V 0.04238743 c 0,0 -8.96243,0.05844 -11.67806,0.05844 -2.71563,0 -11.67807,-0.05844 -11.67807,-0.05844 z"
       id="path2"
       style="fill:#ffffff;fill-opacity:1" />
    <path
       class="cls-1"
       d="m 24.59094,23.430867 a 4.44236,4.44236 0 0 1 -3.50458,-1.84481 l -7.37109,-8.462 c 3.88153,-0.50593 6.27424,-3.07262 6.27424,-6.7781596 a 5.45981,5.45981 0 0 0 -2.76766,-5.17333 12.28855,12.28855 0 0 0 -5.9352,-1.15280997 c -0.77792,0.019 -2.64866,0.08343 -4.70941,0.08343 -2.13714,0 -6.57722,-0.08643 -6.57722,-0.08643 V 1.5675374 h 0.30794 c 1.17681,-0.00706 2.50169,-0.00201 2.85269,1.11588 a 22.29994,22.29994 0 0 1 0.32295,4.58941 V 17.451567 a 36.24205,36.24205 0 0 1 -0.14966,3.99725 4.81123,4.81123 0 0 1 -0.17427,0.86615 c -0.36,1.11389 -1.79482,1.11389 -2.94867,1.11389 H 0 v 1.55076 c 0,0 3.456,-0.15195 5.76631,-0.15195 1.98614,0 5.44042,0.14809 5.44031,0.15195 v -1.55076 h -0.307 c -1.15788,0.005 -2.47071,0.002 -2.85366,-1.1159 a 4.83029,4.83029 0 0 1 -0.17393,-0.86414 33.45853,33.45853 0 0 1 -0.149,-3.72525 v -4.16148 c 1.37886,0.012 1.49884,0.157 2.20872,1.01386 0.131,0.158 0.281,0.338 0.454,0.53795 l 6.15219,7.634 1.8088,2.23171 c 0,0 1.98335,-0.08368 2.94727,-0.08368 1.40155,0 3.476,0.08674 3.476,0.08674 v -1.52385 z M 7.72302,11.866257 c 0,0 -0.001,-9.0138496 -0.002,-9.0668796 -0.006,-0.35994 -0.016,-0.85188 0.284,-0.99084 a 19.72941,19.72941 0 0 1 2.32375,-0.019 c 3.16159,0 4.97638,1.85078 4.97638,5.07542 0,2.35066 -0.62493,3.6994996 -2.02576,4.3754396 -1.30585,0.63086 -5.55637,0.62586 -5.55637,0.62586 z"
       id="path3"
       style="fill:#ffffff;fill-opacity:1" />
    <path
       class="cls-1"
       d="m 36.19034,2.6934074 c 0.42994,-1.12487 1.84974,-1.12487 2.98962,-1.12487 h 0.212 V 0.01776743 c 0,0 -4.44371,0.098 -5.80284,0.098 -1.4002,0 -5.55276,-0.098 -5.55276,-0.098 V 1.5685374 h 0.212 c 1.13982,0 2.55968,0 2.98859,1.12291 a 21.36126,21.36126 0 0 1 0.35695,4.85438 v 9.9067396 a 21.4039,21.4039 0 0 1 -0.35592,4.85341 c -0.42994,1.12388 -1.8498,1.12388 -2.98962,1.12388 h -0.212 v 1.55181 c -10e-5,-0.0039 3.5923,-0.153 5.55912,-0.153 2.264,0 5.79648,0.153 5.79648,0.153 v -1.55181 h -0.212 c -1.13988,0 -2.55968,0 -2.98865,-1.12187 a 21.37019,21.37019 0 0 1 -0.35695,-4.85542 V 7.5458274 a 21.39209,21.39209 0 0 1 0.35598,-4.85242 z"
       id="path4"
       style="fill:#ffffff;fill-opacity:1" />
    <path
       class="cls-1"
       d="M 42.76252,0.04238743 V 6.5175974 h 1.53979 l 0.007,-0.204 c 0.141,-4.21347 1.75277,-4.39143 5.38434,-4.39143 0.125,0 0.25,0 0.37294,-10e-4 0.90291,-0.006 1.75479,-0.011 2.08971,0.322 a 0.62682,0.62682 0 0 1 0.167,0.46894 V 19.733927 c 0,2.52569 -0.354,3.56956 -3.91053,3.71658 l -0.203,0.008 v 1.54277 c 0,0 4.14644,-0.152 6.54562,-0.152 1.83163,0 5.9208,0.152 5.9208,0.152 v -1.5428 l -0.20292,-0.008 c -3.5576,-0.147 -3.91053,-1.19089 -3.91053,-3.71658 V 2.7120374 a 0.56271,0.56271 0 0 1 0.163,-0.42194 c 0.41,-0.403 1.53985,-0.38594 2.44769,-0.37294 0.172,0.003 0.341,0.005 0.501,0.005 3.55156,0 4.69638,1.02783 4.90338,4.39747 l 0.012,0.198 h 1.52884 V 0.04238743 c 0,0 -8.96243,0.05844 -11.67806,0.05844 -2.71563,0 -11.67807,-0.05844 -11.67807,-0.05844 z"
       id="path5"
       style="fill:#ffffff;fill-opacity:1" />
    <path
       class="cls-1"
       d="m 24.59094,23.430867 a 4.44236,4.44236 0 0 1 -3.50458,-1.84481 l -7.37109,-8.462 c 3.88153,-0.50593 6.27424,-3.07262 6.27424,-6.7781596 a 5.45981,5.45981 0 0 0 -2.76766,-5.17333 12.28855,12.28855 0 0 0 -5.9352,-1.15280997 c -0.77792,0.019 -2.64866,0.08343 -4.70941,0.08343 -2.13714,0 -6.57722,-0.08643 -6.57722,-0.08643 V 1.5675374 h 0.30794 c 1.17681,-0.00706 2.50169,-0.00201 2.85269,1.11588 a 22.29994,22.29994 0 0 1 0.32295,4.58941 V 17.451567 a 36.24205,36.24205 0 0 1 -0.14966,3.99725 4.81123,4.81123 0 0 1 -0.17427,0.86615 c -0.36,1.11389 -1.79482,1.11389 -2.94867,1.11389 H 0 v 1.55076 c 0,0 3.456,-0.15195 5.76631,-0.15195 1.98614,0 5.44042,0.14809 5.44031,0.15195 v -1.55076 h -0.307 c -1.15788,0.005 -2.47071,0.002 -2.85366,-1.1159 a 4.83029,4.83029 0 0 1 -0.17393,-0.86414 33.45853,33.45853 0 0 1 -0.149,-3.72525 v -4.16148 c 1.37886,0.012 1.49884,0.157 2.20872,1.01386 0.131,0.158 0.281,0.338 0.454,0.53795 l 6.15219,7.634 1.8088,2.23171 c 0,0 1.98335,-0.08368 2.94727,-0.08368 1.40155,0 3.476,0.08674 3.476,0.08674 v -1.52385 z M 7.72302,11.866257 c 0,0 -0.001,-9.0138496 -0.002,-9.0668796 -0.006,-0.35994 -0.016,-0.85188 0.284,-0.99084 a 19.72941,19.72941 0 0 1 2.32375,-0.019 c 3.16159,0 4.97638,1.85078 4.97638,5.07542 0,2.35066 -0.62493,3.6994996 -2.02576,4.3754396 -1.30585,0.63086 -5.55637,0.62586 -5.55637,0.62586 z"
       id="path6"
       style="fill:#ffffff;fill-opacity:1" />
  </g>
</svg>
